<svg width="686" height="686" viewBox="0 0 686 686" fill="none" xmlns="http://www.w3.org/2000/svg">
<path d="M343 21.4375L278.688 278.688L343 343L407.312 278.688L343 21.4375Z" stroke="#BC9F4F" stroke-width="16" stroke-linecap="round" stroke-linejoin="round"/>
<path d="M343 664.562L278.688 407.312L343 343L407.312 407.312L343 664.562Z" stroke="#BC9F4F" stroke-width="16" stroke-linecap="round" stroke-linejoin="round"/>
<path d="M407.312 278.688L664.562 343L407.312 407.312" stroke="#BC9F4F" stroke-width="16" stroke-linecap="round" stroke-linejoin="round"/>
<path d="M278.688 278.688L21.4375 343L278.688 407.312" stroke="#BC9F4F" stroke-width="16" stroke-linecap="round" stroke-linejoin="round"/>
<path d="M108.179 321.321C113.239 266.5 137.32 215.178 176.249 176.249C215.178 137.32 266.501 113.239 321.322 108.179" stroke="#BC9F4F" stroke-width="16" stroke-linecap="round" stroke-linejoin="round"/>
<path d="M321.322 577.821C266.501 572.761 215.178 548.68 176.249 509.751C137.32 470.822 113.239 419.5 108.179 364.679" stroke="#BC9F4F" stroke-width="16" stroke-linecap="round" stroke-linejoin="round"/>
<path d="M577.821 364.679C572.761 419.5 548.68 470.822 509.751 509.751C470.822 548.68 419.5 572.761 364.679 577.821" stroke="#BC9F4F" stroke-width="16" stroke-linecap="round" stroke-linejoin="round"/>
<path d="M364.679 108.179C419.5 113.239 470.822 137.32 509.751 176.249C548.68 215.178 572.761 266.5 577.821 321.321" stroke="#BC9F4F" stroke-width="16" stroke-linecap="round" stroke-linejoin="round"/>
<path d="M353.02 77C353.02 77 318.253 114.086 313.512 183.523C310.564 226.689 320.085 256.309 349.07 288.469C356.181 296.359 371.194 305.039 371.194 305.039M371.194 149.594C371.194 149.594 340.378 166.164 345.119 214.297C349.705 260.852 399.642 278.211 399.642 278.211M357.762 349.227L458.115 296.359M371.194 365.797L525.281 308.195M384.628 380L564 318.453" stroke="#BC9F4F" stroke-width="8"/>
<path d="M340.789 379C337.64 379 314.809 401.909 317.171 405.858C319.197 409.245 331.16 398.835 340.789 398.749C350.713 398.66 358.109 410.756 361.258 408.228C366.179 404.279 345.171 379 340.789 379Z" fill="#BC9F4F"/>
<path d="M336.066 433.507C328.98 433.507 318.554 454.508 321.894 455.625C324.256 456.415 329.551 449.215 336.066 449.305C344.314 449.42 346.3 460.681 351.023 458.785C353.385 457.837 340.789 433.507 336.066 433.507Z" fill="#BC9F4F"/>
<path d="M340.789 379C337.64 379 314.809 401.909 317.171 405.858C319.197 409.245 331.16 398.835 340.789 398.749C350.713 398.66 358.109 410.756 361.258 408.228C366.179 404.279 345.171 379 340.789 379Z" stroke="#BC9F4F" stroke-width="2"/>
<path d="M336.066 433.507C328.98 433.507 318.554 454.508 321.894 455.625C324.256 456.415 329.551 449.215 336.066 449.305C344.314 449.42 346.3 460.681 351.023 458.785C353.385 457.837 340.789 433.507 336.066 433.507Z" stroke="#BC9F4F" stroke-width="2"/>
<path d="M500.034 593C500.034 593 685.51 465.793 627.906 272.217C570.302 78.6417 399 66 399 66" stroke="#BC9F4F" stroke-width="14" stroke-linecap="round"/>
</svg>
